<?xml version="1.0" standalone="no"?>
<!DOCTYPE svg PUBLIC "-//W3C//DTD SVG 20010904//EN"
 "http://www.w3.org/TR/2001/REC-SVG-20010904/DTD/svg10.dtd">
<svg version="1.0" xmlns="http://www.w3.org/2000/svg"
 width="260.000000pt" height="260.000000pt" viewBox="0 0 260.000000 260.000000"
 preserveAspectRatio="xMidYMid meet">
<metadata>
Created by potrace 1.14, written by Peter Selinger 2001-2017
</metadata>
<g transform="translate(0.000000,260.000000) scale(0.100000,-0.100000)"
fill="#000000" stroke="none">
<path d="M1250 2593 c-94 -39 -131 -144 -83 -236 21 -42 42 -114 49 -173 l6
-51 -52 -7 c-49 -7 -155 -38 -227 -67 -30 -12 -35 -11 -60 12 -96 88 -259 83
-350 -11 -92 -95 -97 -255 -11 -347 l30 -31 -27 -69 c-15 -37 -35 -105 -44
-151 l-16 -83 -52 6 c-53 6 -142 33 -184 55 -37 20 -100 20 -141 -1 -103 -52
-117 -189 -27 -260 53 -42 117 -44 200 -6 52 23 147 47 191 47 12 0 18 -7 18
-23 0 -87 80 -290 152 -385 39 -53 39 -54 21 -75 -62 -71 -124 -117 -216 -160
-102 -48 -127 -93 -98 -179 31 -93 170 -108 224 -25 7 12 21 42 31 66 20 52
61 113 107 161 65 67 62 66 121 21 95 -71 298 -151 385 -151 23 0 24 -2 19
-53 -7 -64 -16 -94 -49 -172 -18 -44 -24 -72 -21 -104 8 -87 86 -149 172 -137
104 14 162 110 127 208 -9 24 -24 66 -35 95 -10 28 -21 76 -25 107 -7 55 -7
56 17 56 46 0 183 40 260 76 l76 36 36 -27 c52 -40 128 -40 184 -2 22 16 46
43 53 60 21 49 16 112 -9 147 -27 36 -27 45 -3 78 54 77 114 232 127 330 5 40
11 52 24 52 39 0 124 -21 187 -46 84 -34 118 -37 169 -14 60 26 89 72 89 141
0 46 -5 63 -29 93 -53 70 -132 79 -241 26 -30 -14 -139 -40 -169 -40 -21 0
-26 5 -26 25 0 87 -83 297 -154 389 l-38 49 34 29 c18 16 74 49 125 74 106 53
127 78 127 146 -1 81 -53 132 -133 132 -68 0 -93 -22 -145 -127 -25 -51 -58
-107 -74 -126 l-29 -35 -39 30 c-105 81 -259 147 -375 161 -37 4 -49 10 -49
23 0 42 24 137 50 198 41 98 28 174 -39 222 -31 21 -113 35 -141 23z"/>
</g>
</svg>
