<?xml version="1.0"?>
<svg width="555" height="579" xmlns="http://www.w3.org/2000/svg" xmlns:svg="http://www.w3.org/2000/svg">
 <defs>
  <filter color-interpolation-filters="sRGB" filterUnits="userSpaceOnUse" height="370.88" id="filter0_d" width="370.88" x="214.439" y="261.124">
   <feGaussianBlur stdDeviation="40"/>
  </filter>
  <linearGradient id="paint0_linear" x1="-0.011236" x2="0.12312" y1="0.250802" y2="1.027803">
   <stop stop-color="#FFCCCC"/>
   <stop offset="1" stop-color="#FFEEEE"/>
  </linearGradient>
  <linearGradient id="paint1_linear" x1="1.129438" x2="0.383131" y1="0.299389" y2="0.045585">
   <stop stop-color="white"/>
   <stop offset="1" stop-color="#FFCECE"/>
  </linearGradient>
  <linearGradient id="paint2_linear" x1="1.008103" x2="-0.173339" y1="0.873058" y2="0.309075">
   <stop stop-color="#FFD1D1"/>
   <stop offset="1" stop-color="#FFFBFC"/>
  </linearGradient>
  <linearGradient id="paint3_linear" x1="0.909306" x2="0.000872" y1="0.890794" y2="0.247038">
   <stop stop-color="#FFCDCD"/>
   <stop offset="1" stop-color="#FFF3F3"/>
  </linearGradient>
 </defs>
 <g class="layer">
  <title>Layer 1</title>
  <path d="m201.139523,564.897841c-31.476,11.152 -63.257,16.305 -97.157,9.864c-37.7843,-7.182 -70.5574,-39.517 -89.0753,-71.764c-6.8804,-11.977 -12.358,-25.361 -11.6422,-39.152c1.6654,-31.861 31.7646,-35.421 57.3142,-30.268c14.4023,2.898 27.6263,9.495 40.7013,16.028c21.706,10.855 47.168,16.193 66.629,31.238c6.53,5.063 11.434,11.146 19.022,14.83c11.803,5.734 25.276,8.442 37.4,13.661c10.351,4.478 21.92,11.844 21.936,23.118c0.001,11.561 -12.061,18.929 -22.659,23.531c-7.501,3.279 -14.97,6.269 -22.469,8.914z" fill="url(#paint0_linear)" id="svg_1"/>
  <path d="m85.280523,153.936841c51.563,-75.9886 158.186,-106.4995 244.61,-77.9294c41.675,13.7838 76.601,42.4854 108.815,72.2804c28.395,26.26 55.943,54.585 75.334,88.344c13.241,23.043 22.718,50.665 29.41,76.453c10.005,38.612 0.919,88.363 -48.994,84.718c-11.711,-0.854 -21.842,-5.066 -32.795,-8.75c-8.859,-2.986 -17.541,-1.195 -26.739,-2.654c-23.153,-3.666 -45.456,-12.19 -66.547,-22.174c-42.982,-20.366 -82.256,-48.035 -126.46,-65.881c-36.225,-14.607 -74.911,-22.148 -113.97,-22.217c-16.478,-0.027 -33.804,1.126 -48.544,-6.242c-36.3307,-18.177 -19.9932,-67.191 -6.425,-94.763c3.5947,-7.344 7.707,-14.424 12.305,-21.185z" fill="url(#paint1_linear)" id="svg_2"/>
  <path d="m489.566523,165.405841c8.488,7.689 41.841,28.678 42.483,4.047c0.152,-6.136 -2.631,-12.094 -6.419,-16.588c-4.334,-5.158 -9.247,-7.863 -12.631,-13.873c-4.14,-7.255 -8.854,-14.075 -14.079,-20.369c-10.681,-13.101 -23.152,-25.2067 -38.283,-30.6002c-10.613,-3.7784 -28.581,-2.8282 -33.623,10.7736c-7.344,19.8006 24.06,23.4286 33.637,30.6446c9.089,6.83 14.237,18.566 21.437,27.893c2.275,2.941 4.779,5.644 7.478,8.072z" fill="url(#paint2_linear)" id="svg_3"/>
  <path d="m332.588523,141.322841c17.981,10.586 31.469,26.432 47.862,39.194c27.294,21.244 64.704,25.59 96.004,40.363c31.915,15.074 56.014,38.499 66.91,72.262c14.076,43.58 15.414,95.406 3.455,140.209c-13.171,49.317 -44.1,82.077 -89.321,103.923c-45.196,21.834 -95.263,32.023 -145.198,34.125c-4.819,0.207 -9.629,0.319 -14.459,0.35c-108.48,0.63 -252.8742,-37.554 -289.8072,-154.089c-0.3385,-1.065 -0.6629,-2.129 -0.9883,-3.209c-3.8057,-12.984 -6.0433,-26.376 -6.6651,-39.891c-2.323,-47.913 6.0627,-100.798 22.8607,-145.714c11.2982,-30.239 35.627,-55.808 61.2629,-74.026c36.019,-25.595 79.966,-32.127 123.707,-35.198c32.39,-2.272 68.819,-3.103 99.448,9.287c8.608,3.509 16.941,7.659 24.929,12.414z" fill="url(#paint3_linear)" id="svg_4"/>
  <path d="m408.140523,561.410841c-139.047,40.43 -254.919,1.444 -295.474,-23.103l-37.6585,-28.879l13.0355,-21.659l81.111,-7.219l134.701,-7.22l108.63,21.659l112.975,-37.542l8.161,0c-17.381,58.912 -89.754,93.855 -125.481,103.963z" fill="#FB4C47" id="svg_5"/>
  <path d="m396.621523,273.999841c0,0 110,5 136.5,120.5c21,149 -77.989,96.304 -101.657,88.96c-23.662,-7.344 -108.036,-198.058 -34.843,-209.46z" fill="#D9423D" id="svg_6"/>
  <path d="m120.693523,506.306841l335.993,0c0,0 11.764,-193.185 -31.042,-221.453c-42.8,-28.263 -242.967,-22.36 -287.331,1.78c-44.365,24.147 -17.62,219.673 -17.62,219.673z" fill="#FB4C47" id="svg_7"/>
  <path d="m172.082523,257.757841c-0.38,0 -0.765,-0.099 -1.115,-0.309c-1.028,-0.601 -25.04,-15.325 -18.846,-53.215c2.166,-13.253 4.805,-22.804 7.134,-31.24c4.192,-15.179 7.222,-26.149 4.776,-48.247c-0.129,-1.202 0.736,-2.282 1.938,-2.417c1.197,-0.076 2.283,0.736 2.417,1.939c2.54,22.932 -0.753,34.83 -4.91,49.893c-2.3,8.319 -4.904,17.759 -7.035,30.778c-5.715,34.971 16.528,48.609 16.756,48.749c1.039,0.613 1.383,1.956 0.765,2.995c-0.403,0.695 -1.133,1.074 -1.88,1.074z" fill="#000C3E" id="svg_8"/>
  <path d="m257.786523,24.397841c1.705,15.08 -9.142,28.6829 -24.222,30.3877c-15.08,1.7047 -28.683,-9.1426 -30.388,-24.2226c-1.699,-15.08 9.143,-28.68291 24.223,-30.38765c15.08,-1.69891 28.683,9.14258 30.387,24.22255z" fill="#000C3E" id="svg_9"/>
  <path d="m168.380523,247.546841c0,0 10.45,15.231 43.88,16.101c33.423,0.864 57.191,-14.77 83.696,-9.452c26.499,5.319 61.015,-12.038 66.613,-23.685c5.605,-11.642 -13.568,-128.347 -36.342,-144.962c-22.775,-16.6154 -129.065,-17.2985 -148.097,9.0434c-19.033,26.3416 -26.009,141.9436 -9.75,152.9546z" fill="#000C3E" id="svg_10"/>
  <path d="m342.379523,126.911841c5.611,49.695 -30.125,94.532 -79.819,100.142c-49.695,5.611 -94.532,-30.125 -100.142,-79.819c-5.611,-49.6945 30.125,-94.5317 79.819,-100.1422c49.695,-5.6105 94.532,30.125 100.142,79.8192z" fill="#000C3E" id="svg_11"/>
  <path d="m300.941523,209.742841c0,0 16.341,68.849 11.699,77.478c-4.641,8.623 -42.32,8.372 -52.292,7.899c-9.977,-0.479 -25.262,-75.429 -19.453,-76.311c5.809,-0.875 56.584,-24.444 60.046,-9.066z" fill="#FFCEB0" id="svg_12"/>
  <path d="m178.788523,144.754841c0,0 20.095,108.128 94.28,101.718c74.192,-6.404 50.985,-159.522 22.197,-170.0657c-28.788,-10.5496 -139.346,8.9382 -116.477,68.3477z" fill="#FFCEB0" id="svg_13"/>
  <path d="m257.746523,156.625841c0,0 19.085,31.333 15.81,34.095c-3.276,2.761 -13.907,3.958 -17.124,1.932c-3.217,-2.032 -4.991,-38.905 1.314,-36.027z" fill="#EE9B68" id="svg_14"/>
  <path d="m227.890523,78.059241c0,0 -24.421,16.7205 -25.823,41.3986c-1.401,24.672 10.445,85.523 -17.894,86.93c0,0 -72.358,-113.0385 43.717,-128.3286z" fill="#000C3E" id="svg_15"/>
  <path d="m241.856523,76.480941c-2.131,2.0726 27.41,-2.4637 47.406,15.4712c19.99,17.9347 31.736,68.5227 34.492,69.0767c2.761,0.555 3.468,-65.4104 -17.976,-81.9558c-21.449,-16.5453 -51.79,-14.3852 -63.922,-2.5921z" fill="#000C3E" id="svg_16"/>
  <path d="m245.221523,240.548841c0,0 31.042,11.939 58.435,-7.736c0,0 5.061,17.9 3.386,22.454c-1.67,4.559 -48.229,14.665 -60.618,-4.677c0,0 -4.011,-10.538 -1.203,-10.041z" fill="#EE9B68" id="svg_17"/>
  <path d="m318.078523,166.349841c0,0 2.925,-28.268 16.656,-20.439c13.737,7.829 6.924,37.942 -4.81,42.35c-11.741,4.413 -16.429,-6.872 -11.846,-21.911z" fill="#FFCEB0" id="svg_18"/>
  <path d="m201.532523,179.510841c0,0 -9.154,-26.908 -20.796,-16.213c-11.641,10.696 1.711,38.532 14.135,40.214c12.429,1.681 14.478,-10.363 6.661,-24.001z" fill="#FFCEB0" id="svg_19"/>
  <path d="m282.689523,137.218841c0,0 10.958,-10.03 21.315,-2.441c9.102,6.673 -8.418,3.918 -13.924,6.527c-5.499,2.61 -13.276,4.128 -7.391,-4.086z" fill="#41294A" id="svg_20"/>
  <path d="m232.139523,146.831841c0,0 -13.037,-7.128 -21.281,2.709c-7.251,8.652 9.108,1.798 15.075,3.018c5.966,1.226 13.877,0.847 6.206,-5.727z" fill="#41294A" id="svg_21"/>
  <path d="m230.848523,156.547841c-0.8,0 -1.6,0.046 -2.412,0.134c-11.658,1.325 -20.077,11.887 -18.763,23.54c1.313,11.559 11.781,20.089 23.527,18.758c5.652,-0.643 10.713,-3.439 14.257,-7.882c3.544,-4.449 5.144,-10.007 4.507,-15.652c-1.22,-10.771 -10.292,-18.898 -21.116,-18.898zm-0.059,45.485c-12.307,0 -22.634,-9.236 -24.012,-21.485c-1.501,-13.252 8.074,-25.261 21.327,-26.762c13.486,-1.57 25.273,8.185 26.756,21.333c0.73,6.422 -1.092,12.745 -5.12,17.795c-4.028,5.056 -9.785,8.237 -16.207,8.961c-0.922,0.105 -1.839,0.158 -2.744,0.158z" fill="#FFFCF6" id="svg_22"/>
  <path d="m290.048523,144.181841c-0.805,0 -1.605,0.047 -2.423,0.135c-5.651,0.642 -10.713,3.438 -14.251,7.881c-3.549,4.449 -5.143,10.007 -4.512,15.652c1.313,11.566 11.781,20.084 23.527,18.758c5.652,-0.642 10.713,-3.438 14.257,-7.881c3.544,-4.449 5.144,-10.007 4.507,-15.652c-1.22,-10.766 -10.287,-18.893 -21.105,-18.893zm-0.081,45.48c-12.301,0 -22.623,-9.236 -24.001,-21.485c-0.73,-6.422 1.092,-12.745 5.12,-17.795c4.028,-5.055 9.791,-8.237 16.207,-8.961c13.404,-1.559 25.273,8.173 26.756,21.327c0.73,6.422 -1.092,12.744 -5.12,17.8c-4.028,5.05 -9.785,8.232 -16.207,8.956c-0.922,0.105 -1.839,0.158 -2.755,0.158z" fill="#FFFCF6" id="svg_23"/>
  <path d="m208.199523,176.940841c-0.111,0 -0.216,-0.012 -0.327,-0.041l-9.271,-2.131c-0.782,-0.175 -1.273,-0.963 -1.092,-1.745c0.181,-0.788 0.981,-1.296 1.746,-1.092l9.271,2.131c0.782,0.175 1.273,0.963 1.092,1.746c-0.152,0.677 -0.754,1.132 -1.419,1.132z" fill="#FFFCF6" id="svg_24"/>
  <path d="m310.728523,157.556841c-0.555,0 -1.086,-0.321 -1.331,-0.853c-0.333,-0.73 -0.006,-1.599 0.724,-1.938l11.635,-5.313c0.706,-0.338 1.594,-0.017 1.932,0.724c0.333,0.73 0.012,1.6 -0.723,1.933l-11.63,5.318c-0.199,0.088 -0.403,0.129 -0.607,0.129z" fill="#FFFCF6" id="svg_25"/>
  <path d="m235.942523,71.006641c0,0 12.214,58.4112 29.255,61.3062c17.048,2.896 56.753,-4.6 57.705,-11.337c0.951,-6.732 -39.764,-53.6181 -64.617,-58.3704c-43.588,-8.331 -69.147,64.3484 -61.978,79.8484c7.175,15.506 40.593,-4.057 47.861,-7.286c7.275,-3.234 -7.981,-52.2864 -8.226,-64.1612z" fill="#000C3E" id="svg_26"/>
  <path d="m253.229523,175.475841c-0.665,0 -1.267,-0.455 -1.418,-1.126c-0.181,-0.789 0.303,-1.571 1.085,-1.752l14.637,-3.398c0.817,-0.21 1.576,0.31 1.751,1.086c0.181,0.788 -0.303,1.571 -1.092,1.752l-14.63,3.397c-0.117,0.03 -0.222,0.041 -0.333,0.041z" fill="#FFFCF6" id="svg_27"/>
  <path d="m217.288523,57.258341c-0.234,0 -0.467,-0.035 -0.701,-0.1167c-8.564,-2.9016 -14.163,-7.8932 -16.644,-14.8523c-5.441,-15.2785 6.299,-34.30511 6.807,-35.11077c0.642,-1.02752 1.985,-1.34278 3.018,-0.6889c1.022,0.63635 1.332,1.99081 0.695,3.01249c-0.111,0.18098 -11.127,18.05748 -6.393,31.32758c2.009,5.6222 6.697,9.7206 13.919,12.1668c1.144,0.3853 1.763,1.6288 1.372,2.7731c-0.304,0.9108 -1.162,1.4887 -2.073,1.4887z" fill="#000C3E" id="svg_28"/>
  <path d="m249.352523,57.366541c-0.513,0 -1.033,-0.181 -1.447,-0.5488c-0.905,-0.7998 -0.993,-2.1835 -0.193,-3.0884c0.14,-0.1576 13.941,-15.9849 11.454,-29.8505c-1.062,-5.8849 -5.009,-10.6897 -11.728,-14.29188c-1.069,-0.57214 -1.472,-1.89741 -0.9,-2.95996c0.573,-1.08006 1.915,-1.4537 2.96,-0.90491c7.975,4.27354 12.669,10.12335 13.977,17.39195c2.861,15.9557 -11.851,32.8046 -12.482,33.5169c-0.432,0.4846 -1.033,0.7356 -1.641,0.7356z" fill="#000C3E" id="svg_29"/>
  <path d="m354.529523,228.325841c-0.542,0 -1.085,-0.198 -1.506,-0.607c-0.875,-0.829 -0.911,-2.212 -0.076,-3.094c0.654,-0.695 16.061,-17.316 7.929,-40.178c-3.182,-8.95 -8.022,-18.653 -13.142,-28.934c-8.927,-17.929 -18.163,-36.465 -21.105,-55.264c-0.193,-1.1972 0.625,-2.3181 1.821,-2.4991c1.197,-0.2627 2.318,0.6247 2.499,1.8215c2.837,18.1336 11.922,36.3606 20.708,53.9856c5.179,10.404 10.071,20.223 13.346,29.419c9.055,25.46 -8.156,43.897 -8.891,44.673c-0.427,0.45 -1.005,0.677 -1.583,0.677z" fill="#000C3E" id="svg_30"/>
  <path d="m346.839523,128.501841c-1.179,0 -2.154,-0.94 -2.189,-2.125c-0.671,-24.252 -8.156,-43.0333 -22.249,-55.8422c-22.693,-20.6146 -55.13,-18.688 -55.439,-18.653c-1.343,0.1576 -2.248,-0.8349 -2.33,-2.0375c-0.087,-1.2027 0.829,-2.2477 2.038,-2.3294c1.395,-0.0993 34.608,-2.0843 58.679,19.7855c15.01,13.6321 22.973,33.4646 23.68,58.9476c0.035,1.209 -0.917,2.219 -2.125,2.254l-0.065,0z" fill="#000C3E" id="svg_31"/>
  <path d="m268.646523,226.495841c-2.546,0 -4.355,-0.443 -4.507,-0.484c-1.174,-0.298 -1.88,-1.477 -1.588,-2.651c0.292,-1.162 1.471,-1.868 2.65,-1.599c0.059,0.023 6.329,1.512 11.087,-1.822c1.004,-0.689 2.364,-0.449 3.048,0.531c0.694,0.993 0.455,2.359 -0.532,3.048c-3.421,2.399 -7.262,2.977 -10.158,2.977z" fill="#EE9B68" id="svg_32"/>
  <path d="m196.103523,196.386841c-0.105,0 -0.21,-0.005 -0.321,-0.023c-1.197,-0.175 -2.02,-1.29 -1.845,-2.487c1.985,-13.527 -8.734,-20.696 -8.845,-20.76c-1.01,-0.666 -1.29,-2.021 -0.636,-3.036c0.66,-1.016 2.014,-1.296 3.03,-0.637c0.537,0.351 13.171,8.798 10.783,25.075c-0.158,1.086 -1.092,1.868 -2.166,1.868z" fill="#EE9B68" id="svg_33"/>
  <path d="m325.420523,183.336841c-1.15,0 -2.113,-0.893 -2.184,-2.055c-1.027,-16.44 5.734,-26.207 6.02,-26.616c0.689,-0.975 2.055,-1.226 3.047,-0.526c0.993,0.695 1.226,2.061 0.537,3.048c-0.064,0.088 -6.153,9.008 -5.237,23.826c0.076,1.208 -0.84,2.241 -2.049,2.317c-0.041,0.006 -0.087,0.006 -0.134,0.006z" fill="#EE9B68" id="svg_34"/>
  <path d="m204.868523,291.149841c0,0 49.712,59.432 88.052,43.529c38.333,-15.903 74.25,-59.012 54.978,-64.733c-19.272,-5.722 -173.166,-2.709 -143.03,21.204z" fill="#FFCEB0" id="svg_35"/>
  <path d="m242.291523,177.848841c0.549,3.62 -1.944,6.994 -5.563,7.543c-3.62,0.543 -6.995,-1.944 -7.543,-5.564c-0.543,-3.62 1.944,-6.994 5.563,-7.543c3.62,-0.543 6.995,1.944 7.543,5.564z" fill="#41294A" id="svg_36"/>
  <path d="m304.455523,165.894841c0.549,3.619 -1.944,6.994 -5.564,7.543c-3.62,0.543 -6.994,-1.945 -7.543,-5.564c-0.543,-3.62 1.944,-6.994 5.564,-7.543c3.62,-0.543 6.994,1.944 7.543,5.564z" fill="#41294A" id="svg_37"/>
  <path d="m253.109523,218.531841c-0.345,0 -0.683,-0.082 -1.005,-0.245c-1.068,-0.555 -1.494,-1.868 -0.939,-2.948c0.315,-0.608 7.864,-15.028 20.024,-16.388c6.907,-0.771 13.644,2.761 20.107,10.468c0.777,0.934 0.654,2.312 -0.268,3.088c-0.923,0.794 -2.301,0.654 -3.083,-0.269c-5.47,-6.521 -10.912,-9.551 -16.259,-8.932c-9.826,1.086 -16.563,13.907 -16.633,14.041c-0.386,0.753 -1.15,1.185 -1.944,1.185z" fill="#EE9B68" id="svg_38"/>
  <g filter="url(#filter0_d)" id="svg_39">
   <circle cx="377.000523" cy="442.563841" fill="white" id="svg_40" r="105.440002"/>
  </g>
  <path d="m322.929523,395.504841c0,0 44.07,58.842 55.094,63.707c11.027,4.869 24.851,3.773 26.06,9.417c1.209,5.648 -23.144,-3.904 -19.259,4.807c3.885,8.715 19.025,18.662 19.096,27.435c0.074,8.777 -24.091,-18.837 -24.091,-18.837c0,0 22.768,25.264 15.229,25.861c-7.542,0.598 -27.044,-24.102 -27.044,-24.102c0,0 21.815,32.402 14.583,29.442c-7.228,-2.959 -74.269,-80.484 -84.608,-88.688c-10.338,-8.201 24.94,-29.042 24.94,-29.042z" fill="#E27B5A" id="svg_41"/>
  <path d="m451.126523,409.787841c0,0 -50.265,53.632 -61.759,57.256c-11.495,3.622 -25.113,1.013 -26.937,6.489c-1.821,5.478 23.433,-1.334 18.613,6.901c-4.817,8.231 -20.957,16.45 -21.993,25.165c-1.034,8.712 26.016,-16.072 26.016,-16.072c0,0 -25.407,22.603 -17.979,24.026c7.432,1.426 29.53,-20.977 29.53,-20.977c0,0 -25.245,29.806 -17.733,27.66c7.511,-2.147 82.663,-71.819 93.838,-78.834c11.178,-7.015 -21.596,-31.614 -21.596,-31.614z" fill="#F8B38A" id="svg_42"/>
  <path d="m408.335523,447.026841c0,0 15.46,29.274 29.672,32.389c14.21,3.115 36.763,-19.47 43.461,-33.234c6.701,-13.761 -8.269,-54.787 -21.708,-68.742c-10.096,-1.233 -58.592,43.493 -51.425,69.587z" fill="#F65551" id="svg_43"/>
  <path d="m309.353523,361.933841c0,0 53.903,55.281 51.494,68.292c-2.406,13.014 -21.822,28.604 -37.481,33.709c-15.658,5.103 -51.226,-15.684 -51.226,-30.674c1.55,-28.428 17.572,-55.304 37.213,-71.327z" fill="#128E5A" id="svg_44"/>
  <path d="m129.028523,425.957841c0,0 118.861,64.956 141.081,64.69c22.218,-0.272 44.577,-12.665 50.917,-4.132c6.337,8.54 -41.818,11.138 -28.645,22.777c13.166,11.636 46.162,16.74 52.983,31.394c6.814,14.652 -54.81,-13.167 -54.81,-13.167c0,0 57.494,24.947 45.297,31.708c-12.201,6.768 -63.781,-19.732 -63.781,-19.732c0,0 61.344,37.646 46.952,38.208c-14.393,0.563 -186.068,-78.155 -209.675,-84.006c-23.612,-5.85 19.681,-67.74 19.681,-67.74z" fill="#FFC6A6" id="svg_45"/>
  <path d="m220.730523,422.253841c0,0 1.425,55.159 -11.244,76.206c-30.121,50.04 -111.578,43.939 -135.8643,8.04c-24.2868,-35.899 28.8213,-217.14 64.6913,-219.867c35.87,-2.726 82.417,83.367 82.417,135.621z" fill="#D9423D" id="svg_46"/>
  <path d="m243.956523,5.669441c-0.673,0 -1.403,0.07811 -2.194,0.23433c-1.929,0.38714 -3.179,1.32445 -3.929,2.95115c-3.345,7.24032 3.708,24.48542 8.748,34.67362c3.114,-11.3021 6.846,-30.1942 1.572,-36.1475c-1.015,-1.14446 -2.397,-1.7116 -4.197,-1.7116zm3.212,46.3627c-0.838,0 -1.623,-0.4516 -2.037,-1.1988c-1.783,-3.1956 -17.242,-31.5763 -11.537,-43.93454c1.372,-2.97153 3.882,-4.90048 7.254,-5.5729c5.746,-1.14446 9.047,0.97806 10.8,2.95795c9.162,10.34439 -1.063,42.51169 -2.259,46.14539c-0.292,0.8796 -1.073,1.5045 -1.996,1.5928c-0.075,0.0068 -0.15,0.0101 -0.225,0.0101z" fill="#FFD310" id="svg_47"/>
  <path d="m275.428523,17.153041c-0.221,0 -0.445,0.0135 -0.669,0.0475c-7.889,1.0494 -17.422,17.7817 -22.461,28.3671c10.476,-4.4114 27.093,-12.837 29.301,-20.4985c0.495,-1.7252 0.163,-3.25 -1.043,-4.8054c-1.623,-2.0885 -3.304,-3.1107 -5.128,-3.1107zm-27.61,35.0267c-0.628,0 -1.243,-0.2513 -1.688,-0.7199c-0.641,-0.6724 -0.825,-1.6573 -0.468,-2.5131c1.474,-3.5285 14.779,-34.5479 28.479,-36.375c2.625,-0.3498 6.507,0.2004 10.1,4.8258c2.112,2.7168 2.751,5.8174 1.844,8.9621c-3.77,13.0782 -34.032,24.4278 -37.469,25.6809c-0.261,0.0951 -0.529,0.1392 -0.798,0.1392z" fill="#FFD310" id="svg_48"/>
  <path d="m203.988523,43.933441c11.34,7.2902 37.261,12.9603 57.511,0" id="svg_49" stroke="#FFD310" stroke-width="4.87"/>
 </g>
</svg>