<?xml version="1.0"?>
<svg width="717" height="771" xmlns="http://www.w3.org/2000/svg" xmlns:svg="http://www.w3.org/2000/svg">
 <defs>
  <linearGradient id="paint0_linear" x1="-0.006103" x2="0.203376" y1="0.344325" y2="1.15047">
   <stop stop-color="#FFC8C8"/>
   <stop offset="1" stop-color="#FFF2F5"/>
  </linearGradient>
  <linearGradient id="paint1_linear" x1="0.974668" x2="0.171079" y1="0.430392" y2="-0.160643">
   <stop stop-color="white"/>
   <stop offset="1" stop-color="#FFD5D5"/>
  </linearGradient>
  <linearGradient id="paint2_linear" x1="1.001997" x2="-0.124263" y1="0.805264" y2="0.515301">
   <stop stop-color="#FFD3D3"/>
   <stop offset="1" stop-color="#FFF6F6"/>
  </linearGradient>
  <linearGradient id="paint3_linear" x1="-0.030701" x2="1.025796" y1="0.457971" y2="0.457971">
   <stop stop-color="#FFF8F5"/>
   <stop offset="1" stop-color="#FFDEDE"/>
  </linearGradient>
  <linearGradient id="paint4_linear" x1="0.88263" x2="0.223439" y1="0.564504" y2="0.677968">
   <stop stop-color="#FFC2C2"/>
   <stop offset="1" stop-color="white"/>
  </linearGradient>
 </defs>
 <g class="layer">
  <title>Layer 1</title>
  <path d="m313.665722,643.079405c-35.171,20.332 -72.039,33.555 -114.017,33.382c-46.789,-0.197 -93.172,-31.592 -122.484,-66.048c-10.891,-12.797 -20.416,-27.588 -22.623,-44.243c-5.086,-38.478 30.124,-49.423 61.829,-48.935c17.87,0.267 35.153,5.219 52.242,10.129c28.374,8.161 60.015,8.889 86.634,22.562c8.935,4.605 16.152,10.792 26.046,13.512c15.392,4.236 32.109,4.482 47.768,8.031c13.376,3.057 28.851,9.298 31.373,22.778c2.571,13.828 -10.22,25.32 -21.874,33.179c-8.244,5.589 -16.513,10.825 -24.894,15.653z" fill="url(#paint0_linear)" id="svg_1"/>
  <path d="m65.361722,187.934405c40.998,-110.253 164.355,-180.7026 280.586,-171.492c56.049,4.45 108.249,29.517 157.406,56.771c43.33,24.019 86.234,50.864 120.647,86.957c23.495,24.635 43.702,56.113 59.886,86.157c24.213,44.991 28.069,109.657 -35.141,120.331c-14.831,2.506 -28.719,0.354 -43.467,-0.892c-11.933,-1.017 -22.188,3.858 -34.077,4.846c-29.922,2.493 -60.269,-1.316 -89.551,-7.31c-59.682,-12.242 -116.976,-34.699 -177.41,-43.433c-49.521,-7.134 -99.949,-4.728 -148.565,7.087c-20.51,4.988 -41.715,11.702 -62.299,7.027c-50.739,-11.545 -45.348,-77.504 -36.869,-115.942c2.235,-10.233 5.193,-20.294 8.854,-30.107z" fill="url(#paint1_linear)" id="svg_2"/>
  <path d="m565.070722,81.927405c12.06,6.523 56.821,21.431 50.553,-7.393c-1.572,-7.179 -6.505,-13.314 -12.189,-17.461c-6.508,-4.764 -12.991,-6.511 -18.638,-12.534c-6.881,-7.258 -14.304,-13.845 -22.172,-19.677c-16.152,-12.1923 -34.1,-22.7168 -53.231,-24.6792c-13.418,-1.371 -34.041,4.8512 -36.029,22.1032c-2.902,25.116 34.649,20.391 47.841,26.055c12.514,5.353 21.842,17.534 32.871,26.329c3.483,2.772 7.163,5.201 10.994,7.257z" fill="url(#paint2_linear)" id="svg_3"/>
  <path d="m361.254722,95.076405c25.596,7.692 47.206,23.296 71.491,34.178c40.431,18.114 88.299,12.122 131.742,20.965c44.3,9.029 81.421,30.83 105.265,69.516c30.792,49.931 48.249,114.003 47.022,173.389c-1.359,65.37 -29.857,115.552 -79.462,156.513c-49.577,40.936 -108.763,68.869 -170.249,86.7c-5.933,1.726 -11.884,3.33 -17.883,4.84c-134.774,33.84 -326.057,30.332 -407.517,-103.401c-0.745,-1.222 -1.473,-2.447 -2.207,-3.692c-8.691,-14.993 -15.556,-30.973 -20.448,-47.599c-17.4897,-58.903 -23.1713,-127.254 -15.9586,-188.256c4.8426,-41.065 29.8326,-73.083 56.1756,-103.561c37.014,-42.818 87.189,-71.543 140.673,-88.692c39.605,-12.697 84.675,-24.831 126.558,-18.75c11.779,1.744 23.411,4.367 34.798,7.85z" fill="url(#paint3_linear)" id="svg_4"/>
  <path d="m674.819722,512.099405c-23.657,33.025 -51.793,60.275 -90.107,77.427c-42.707,19.114 -97.908,9.638 -138.821,-9.665c-15.198,-7.168 -29.975,-16.715 -38.854,-30.978c-20.499,-32.957 7.065,-57.447 36.15,-70.076c16.39,-7.126 34.177,-9.741 51.771,-12.314c29.214,-4.266 58.34,-16.649 88.228,-15.169c10.039,0.511 19.165,3.171 29.301,1.569c15.769,-2.487 31.1,-9.157 46.83,-12.381c13.445,-2.73 30.117,-3.426 37.974,7.815c8.043,11.537 1.13,27.281 -6.246,39.246c-5.207,8.491 -10.581,16.671 -16.226,24.526z" fill="url(#paint4_linear)" id="svg_5"/>
  <path d="m278.992722,332.551405c-0.34,0 -0.684,-0.108 -0.976,-0.334c-0.268,-0.21 -6.596,-5.208 -11.429,-15.406c-4.432,-9.351 -8.368,-25.027 -1.96,-46.641c4.346,-14.661 8.702,-25.085 12.542,-34.286c6.975,-16.695 12.015,-28.757 12.422,-54.328c0.013,-0.875 0.658,-1.626 1.613,-1.566c0.881,0.016 1.581,0.735 1.569,1.617c-0.417,26.182 -5.823,39.122 -12.667,55.505c-3.812,9.125 -8.129,19.466 -12.428,33.965c-11.686,39.402 12.053,58.442 12.294,58.627c0.691,0.54 0.815,1.539 0.277,2.233c-0.315,0.404 -0.782,0.614 -1.257,0.614z" fill="#000C3E" id="svg_6"/>
  <path d="m409.360722,81.285405c-0.238,17.334 -14.483,31.197 -31.82,30.958c-17.334,-0.239 -31.194,-14.483 -30.959,-31.821c0.239,-17.334 14.487,-31.193 31.821,-30.958c17.334,0.239 31.197,14.487 30.958,31.821z" fill="#000C3E" id="svg_7"/>
  <path d="m275.955722,321.338405c0,0 9.656,18.769 47.414,24.557c37.755,5.784 66.941,-8.521 96.216,1.317c29.275,9.841 70.882,-4.871 78.904,-17.264c8.024,-12.393 3.073,-147.416 -20.351,-169.52c-23.424,-22.103 -143.786,-38.158 -169.144,-11.04c-25.358,27.121 -49.883,157.13 -33.039,171.95z" fill="#000C3E" id="svg_8"/>
  <path d="m490.499722,209.629405c-0.783,57.128 -47.729,102.805 -104.86,102.023c-57.129,-0.783 -102.806,-47.733 -102.023,-104.861c0.786,-57.128 47.733,-102.805 104.861,-102.022c57.128,0.786 102.805,47.732 102.022,104.86z" fill="#000C3E" id="svg_9"/>
  <path d="m302.527722,206.336405c0,0 7.232,125.433 92.235,128.838c85,3.404 80.714,-173.465 49.6,-189.562c-31.114,-16.093 -159.214,-9.892 -141.835,60.724z" fill="#FFCEB0" id="svg_10"/>
  <path d="m390.305722,231.140405c0,0 17.127,38.254 13.016,40.914c-4.11,2.657 -16.328,2.492 -19.685,-0.27c-3.357,-2.762 -0.064,-44.809 6.669,-40.644z" fill="#F5A473" id="svg_11"/>
  <path d="m365.194722,244.675405c-0.111,4.404 -3.77,7.885 -8.174,7.773c-4.403,-0.108 -7.884,-3.767 -7.773,-8.17c0.108,-4.404 3.767,-7.885 8.174,-7.776c4.404,0.111 7.885,3.77 7.773,8.173z" fill="#41294A" id="svg_12"/>
  <path d="m433.571722,239.294405c-0.111,4.404 -3.77,7.885 -8.174,7.773c-4.403,-0.108 -7.884,-3.767 -7.773,-8.17c0.108,-4.404 3.767,-7.885 8.174,-7.777c4.404,0.112 7.884,3.771 7.773,8.174z" fill="#41294A" id="svg_13"/>
  <path d="m367.763722,137.803405c0,0 -30.084,15.441 -35.216,43.205c-5.135,27.763 -0.461,98.433 -32.781,95.954c0,0 -65.754,-138.516 67.997,-139.159z" fill="#41294A" id="svg_14"/>
  <path d="m383.817722,138.023405c-2.714,2.043 31.423,1.149 51.503,24.347c20.083,23.198 26.122,82.222 29.167,83.246c3.044,1.028 13.331,-73.631 -8.598,-95.467c-21.928,-21.834 -56.628,-23.749 -72.072,-12.126z" fill="#41294A" id="svg_15"/>
  <path d="m457.285722,250.833405c0,0 7.379,-31.62 21.817,-20.77c14.439,10.849 2.396,43.993 -11.543,47.306c-13.936,3.312 -17.627,-10.153 -10.274,-26.536z" fill="#FFCEB0" id="svg_16"/>
  <path d="m323.307722,248.996405c0,0 -6.51,-31.811 -21.241,-21.362c-14.729,10.448 -3.599,43.914 10.242,47.608c13.843,3.691 17.9,-9.666 10.999,-26.246z" fill="#FFCEB0" id="svg_17"/>
  <path d="m421.744722,211.160405c0,0 15.012,-7.919 24.261,3.458c8.136,10.004 -10.433,1.897 -17.267,3.192c-6.838,1.298 -15.868,0.731 -6.994,-6.65z" fill="#41294A" id="svg_18"/>
  <path d="m362.088722,214.042405c0,0 -15.397,-7.143 -24.054,4.69c-7.614,10.408 10.515,1.362 17.41,2.31c6.892,0.945 15.883,-0.082 6.644,-7z" fill="#41294A" id="svg_19"/>
  <path d="m416.293722,295.429405c0,0 -9.793,-14.798 -20.388,-13.866c-10.599,0.936 -18.722,14.576 -20.147,15.148c0,0 16.538,7.767 40.535,-1.282z" fill="#41294A" id="svg_20"/>
  <path d="m356.733722,226.917405c-13.258,0 -24.194,10.792 -24.378,24.054c-0.086,6.509 2.364,12.669 6.907,17.34c4.544,4.668 10.63,7.286 17.144,7.375l0.34,0.003c13.258,0 24.194,-10.789 24.375,-24.05c0.185,-13.443 -10.601,-24.531 -24.047,-24.719l-0.341,-0.003zm0.013,51.954l-0.385,-0.003c-7.363,-0.099 -14.245,-3.064 -19.38,-8.339c-5.135,-5.279 -7.907,-12.24 -7.808,-19.603c0.207,-14.992 12.571,-27.191 27.56,-27.191l0.385,0.003c15.199,0.21 27.392,12.746 27.185,27.942c-0.204,14.992 -12.568,27.191 -27.557,27.191z" fill="#FFFCF6" id="svg_21"/>
  <path d="m425.599722,221.405405c-13.262,0 -24.197,10.792 -24.379,24.054c-0.184,13.439 10.605,24.531 24.048,24.715l0.34,0.004c13.262,0 24.197,-10.79 24.379,-24.051c0.089,-6.513 -2.364,-12.673 -6.905,-17.344c-4.543,-4.664 -10.63,-7.286 -17.143,-7.375l-0.34,-0.003zm0.009,51.954l-0.382,-0.003c-15.202,-0.21 -27.394,-12.746 -27.187,-27.942c0.206,-14.992 12.567,-27.191 27.56,-27.191l0.385,0.003c7.362,0.099 14.244,3.064 19.377,8.34c5.138,5.278 7.909,12.24 7.807,19.602c-0.206,14.993 -12.571,27.191 -27.56,27.191z" fill="#FFFCF6" id="svg_22"/>
  <path d="m331.447722,246.976405c-0.181,0 -0.369,-0.032 -0.547,-0.095l-10.204,-3.748c-0.824,-0.306 -1.247,-1.219 -0.945,-2.046c0.303,-0.821 1.222,-1.238 2.043,-0.942l10.201,3.745c0.827,0.305 1.247,1.219 0.945,2.046c-0.236,0.643 -0.844,1.04 -1.493,1.04z" fill="#FFFCF6" id="svg_23"/>
  <path d="m450.434722,239.746405c-0.678,0 -1.308,-0.436 -1.518,-1.117c-0.264,-0.837 0.204,-1.731 1.044,-1.995l13.946,-4.353c0.833,-0.267 1.73,0.207 1.991,1.044c0.264,0.84 -0.203,1.731 -1.043,1.995l-13.946,4.356c-0.156,0.047 -0.318,0.07 -0.474,0.07z" fill="#FFFCF6" id="svg_24"/>
  <path d="m383.320722,167.191405c0,0 0.028,31.732 18.931,37.462c18.899,5.733 67.52,3.204 67.026,-4.55c-4.451,-70.008 -37.36,-66.486 -64.843,-75.445c-48.2,-15.708 -87.622,62.992 -81.72,81.592c5.902,18.597 46.584,1.231 55.292,-1.384c8.705,-2.619 3.882,-24.181 5.314,-37.675z" fill="#000C3E" id="svg_25"/>
  <g id="svg_26" opacity="0.210007">
   <g id="svg_27" opacity="0.210007">
    <path d="m334.576722,274.361405c0,0 42.88,-24.741 61.7,-21.283c18.82,3.462 51.849,4.003 53.345,10.755c1.498,6.748 -41.875,3.706 -55.216,5.004c-13.341,1.299 -64.557,16.657 -59.829,5.524z" fill="#DB5C5D" id="svg_28" opacity="0.210007"/>
   </g>
  </g>
  <path d="m358.573722,257.805405c-0.626,0 -1.221,-0.372 -1.473,-0.993c-0.331,-0.811 0.061,-1.74 0.875,-2.071c4.311,-1.756 5.11,-3.14 5.116,-3.153c0.284,-0.834 1.155,-1.222 1.995,-0.926c0.831,0.283 1.248,1.25 0.964,2.084c-0.2,0.586 -1.285,2.666 -6.878,4.941c-0.198,0.08 -0.398,0.118 -0.599,0.118z" fill="#DB5C5D" id="svg_29"/>
  <path d="m424.085722,254.437405c-1.283,0 -3.446,-0.388 -6.844,-2.046c-0.793,-0.382 -1.12,-1.333 -0.735,-2.125c0.381,-0.789 1.339,-1.114 2.125,-0.732c4.19,2.039 5.749,1.699 5.769,1.699c0.811,-0.34 1.676,0.057 2.02,0.865c0.344,0.809 -0.095,1.763 -0.907,2.11c-0.21,0.089 -0.662,0.229 -1.428,0.229z" fill="#DB5C5D" id="svg_30"/>
  <path d="m382.688722,251.790405c-0.804,0 -1.498,-0.608 -1.581,-1.429c-0.089,-0.875 0.547,-1.657 1.422,-1.743l17.074,-1.744c0.855,-0.108 1.654,0.544 1.743,1.419c0.089,0.875 -0.547,1.658 -1.422,1.744l-17.073,1.743c-0.054,0.007 -0.108,0.01 -0.163,0.01z" fill="#FFFCF6" id="svg_31"/>
  <path d="m359.048722,111.815405c-0.232,0 -0.471,-0.051 -0.694,-0.163c-9.026,-4.387 -14.486,-10.646 -16.236,-18.603c-3.882,-17.668 11.903,-37.217 12.577,-38.041c0.56,-0.681 1.559,-0.779 2.237,-0.223c0.681,0.557 0.783,1.556 0.226,2.237c-0.156,0.191 -15.485,19.196 -11.931,35.352c1.53,6.956 6.414,12.479 14.518,16.421c0.789,0.382 1.12,1.337 0.735,2.126c-0.274,0.563 -0.84,0.894 -1.432,0.894z" fill="#000C3E" id="svg_32"/>
  <path d="m395.378722,116.543405c-0.443,0 -0.882,-0.184 -1.197,-0.541c-0.579,-0.661 -0.515,-1.664 0.147,-2.246c0.184,-0.162 18.428,-16.386 17.576,-32.909c-0.366,-7.111 -4.277,-13.363 -11.623,-18.584c-0.716,-0.506 -0.885,-1.499 -0.376,-2.218c0.509,-0.713 1.502,-0.881 2.218,-0.372c8.18,5.81 12.542,12.883 12.959,21.022c0.923,18.062 -17.856,34.751 -18.658,35.454c-0.302,0.264 -0.674,0.394 -1.046,0.394z" fill="#000C3E" id="svg_33"/>
  <path d="m490.008722,325.430405c-0.461,0 -0.92,-0.197 -1.235,-0.589c-0.553,-0.677 -0.451,-1.68 0.23,-2.236c0.21,-0.172 21.136,-17.649 15.075,-45.299c-2.336,-10.659 -6.431,-22.386 -10.767,-34.802c-7.519,-21.53 -15.295,-43.796 -15.928,-65.381c-0.026,-0.881 0.668,-1.61 1.546,-1.639c0.824,0.029 1.61,0.665 1.636,1.544c0.62,21.095 8.31,43.125 15.749,64.427c4.369,12.51 8.495,24.324 10.872,35.167c6.488,29.606 -15.947,48.267 -16.176,48.452c-0.296,0.238 -0.649,0.356 -1.002,0.356z" fill="#000C3E" id="svg_34"/>
  <path d="m495.659722,211.801405c-0.051,0 -0.105,-0.004 -0.159,-0.007c-0.872,-0.086 -1.512,-0.865 -1.426,-1.74c2.749,-27.837 -3.108,-50.431 -17.404,-67.163c-23.02,-26.934 -60.418,-29.406 -60.79,-29.428c-0.878,-0.051 -1.55,-0.802 -1.496,-1.683c0.048,-0.875 0.802,-1.569 1.677,-1.493c0.392,0.023 39.139,2.581 63.027,30.535c14.881,17.417 20.99,40.816 18.152,69.544c-0.08,0.824 -0.773,1.435 -1.581,1.435z" fill="#000C3E" id="svg_35"/>
  <path d="m381.715722,298.570405c0,0 15.854,-11.123 30.013,-1.588c0,0 -16.532,6.195 -30.013,1.588z" fill="#DB5C5D" id="svg_36"/>
  <path d="m392.205722,309.990405c-1.565,0 -2.911,-0.016 -3.742,-0.029c-0.878,-0.013 -1.578,-0.735 -1.565,-1.616c0.013,-0.878 0.614,-1.591 1.616,-1.566c6.008,0.08 13.186,-0.066 14.302,-0.49c0.818,-0.311 1.741,0.096 2.056,0.914c0.315,0.821 -0.086,1.734 -0.904,2.052c-1.591,0.617 -7.496,0.735 -11.763,0.735z" fill="#DB5C5D" id="svg_37"/>
  <path d="m315.041722,266.453405c-0.143,0 -0.287,-0.019 -0.43,-0.061c-0.846,-0.235 -1.339,-1.11 -1.104,-1.96c4.353,-15.6 -7.203,-25.645 -7.321,-25.746c-0.668,-0.567 -0.751,-1.572 -0.181,-2.244c0.566,-0.668 1.571,-0.75 2.243,-0.178c0.541,0.458 13.22,11.483 8.323,29.027c-0.197,0.7 -0.833,1.162 -1.53,1.162z" fill="#DB5C5D" id="svg_38"/>
  <path d="m463.481722,270.252405c-0.035,0 -0.067,0 -0.105,-0.003c-0.875,-0.057 -1.54,-0.814 -1.486,-1.689c1.19,-18.464 10.038,-28.334 10.417,-28.744c0.592,-0.649 1.597,-0.694 2.243,-0.102c0.649,0.592 0.693,1.597 0.105,2.246c-0.086,0.096 -8.476,9.523 -9.587,26.803c-0.057,0.843 -0.757,1.489 -1.587,1.489z" fill="#DB5C5D" id="svg_39"/>
  <path d="m431.533722,322.190405c0,0 5.059,56.594 -1.654,65.544c-6.714,8.953 -49.235,2.237 -60.425,0c-11.19,-2.237 -11.212,-95.837 -8.953,-89.515c18.683,52.215 69.743,6.007 71.032,23.971z" fill="#FFCEB0" id="svg_40"/>
  <path d="m364.547722,327.788405c0,0 30.166,14.499 64.459,-3.051c0,0 2.666,21.082 0,25.944c-2.663,4.861 -56.985,8.336 -67.679,-15.626c0,0 0.134,-8.307 3.22,-7.267z" fill="#F5A473" id="svg_41"/>
  <path d="m199.810722,771.125405l390.373,0c0,0 19.94,-339.401 -28.96,-376.31c-48.904,-36.911 -264.176,-18.473 -314.858,13.055c-50.682,31.528 -46.555,363.255 -46.555,363.255z" fill="#FB4C47" id="svg_42"/>
  <path d="m394.714722,381.027405c0,0 -15.047,130.464 -8.48,148.622c6.564,18.158 -1.845,98.665 -4.518,109.13c-2.676,10.465 -83.781,14.91 -104.711,6.539c-20.929,-8.372 5.333,-234.023 17.048,-275.771c11.718,-41.751 99.372,-17.153 100.661,11.48z" fill="#05BA6E" id="svg_43"/>
  <path d="m156.530722,221.182405c0,0 32.629,62.492 55.496,63.071c22.87,0.579 99.989,-93.336 128.424,-94.303c28.438,-0.964 52.858,1.794 52.969,-4.983c0.112,-6.78 -39.552,-14.181 -39.552,-14.181c0,0 57.361,3.653 45.496,-2.622c-11.862,-6.274 -40.287,-11.915 -40.287,-11.915c0,0 41.226,1.664 41.525,-2.746c0.299,-4.41 -42.922,-10.904 -42.922,-10.904c0,0 52.594,-1.68 42.976,-8.915c-9.622,-7.235 -27.729,-4.095 -76.706,3.385c-48.979,7.48 -159.786,72.868 -167.419,84.113z" fill="#FFCEB0" id="svg_44"/>
  <path d="m213.775722,218.188405c0,0 52.196,31.092 29.469,66.326c-24.2,37.519 -22.845,26.374 -27.029,41.554c-4.187,15.18 64.786,44.744 67.924,57.739c3.137,12.991 -29.377,172.774 -59.833,166.216c-26.51,-5.704 -173.831,-89.308 -195.002,-172.854c-16.411,-64.77 117.358,-223.198 184.471,-158.981z" fill="#FB4C47" id="svg_45"/>
  <path d="m350.406722,582.648405c0,0 -57.834,127.403 -36.571,144.463c21.264,17.057 38.397,5.944 57.201,17.016c18.808,11.072 36.848,5.536 51.955,-4.098c15.107,-9.638 -24.21,-136.388 -40.472,-148.457c-16.262,-12.071 -29.183,-15.546 -32.113,-8.924z" fill="white" id="svg_46"/>
  <path d="m542.562722,385.749405c0,0 31.098,3.796 55.509,48.5c18.313,33.541 53.794,229.529 0,257.455c-53.794,27.923 -104.25,13.316 -123.774,-5.502c-19.528,-18.818 15.214,-115.798 38.372,-123.037c23.16,-7.237 29.893,-177.416 29.893,-177.416z" fill="#FB4C47" id="svg_47"/>
  <path d="m552.631722,382.745405c0,0 1.455,-9.061 -43.328,-28.441c-35.738,-15.467 -66.349,10.636 -120.862,13.446c-54.512,2.812 -49.593,-18.795 -88.153,-8.753c-59.505,15.492 -12.129,54.497 7.044,58.875c19.174,4.378 83.41,112.363 245.299,-35.127z" fill="#05BA6E" id="svg_48"/>
  <path d="m396.340722,273.850405c0,0 -0.165,3.691 1.954,4.025c2.119,0.334 6.036,-0.85 5.027,-5.823c0,0 -5.313,1.709 -6.981,1.798z" fill="white" id="svg_49"/>
  <path d="m617.075722,579.568405c-0.15,0 -0.302,-0.01 -0.455,-0.032c-1.47,-0.21 -2.558,-1.394 -2.714,-2.803c-2.65,-3.064 -20.446,-9.482 -32.317,-13.764c-23.519,-8.486 -34.067,-12.683 -36.335,-17.274c-1.925,-3.891 -1.063,-9.504 0.028,-16.609c1.728,-11.244 3.882,-25.244 -3.258,-38.728c-12.329,-23.287 -11.155,-57.828 -11.098,-59.285c0.07,-1.756 1.588,-3.163 3.3,-3.058c1.756,0.067 3.124,1.547 3.061,3.3c-0.016,0.343 -1.162,34.305 10.363,56.065c8.123,15.349 5.695,31.14 3.923,42.67c-0.85,5.521 -1.649,10.735 -0.614,12.826c1.928,2.975 20.499,9.676 32.787,14.108c27.694,9.99 37.309,14.009 36.473,19.854c-0.226,1.587 -1.588,2.73 -3.144,2.73z" fill="#B31B1F" id="svg_50"/>
  <path d="m534.061722,553.408405c-0.277,0 -0.557,-0.035 -0.84,-0.111c-10.512,-2.867 -26.844,-5.852 -27.007,-5.883c-1.73,-0.312 -2.876,-1.97 -2.561,-3.698c0.315,-1.731 1.966,-2.895 3.701,-2.561c0.677,0.121 16.761,3.061 27.541,6.001c1.695,0.464 2.695,2.211 2.233,3.907c-0.385,1.416 -1.667,2.345 -3.067,2.345z" fill="#B31B1F" id="svg_51"/>
  <path d="m591.214722,710.789405c-0.051,0 -0.098,0 -0.146,-0.003c-58.894,-2.67 -117.572,-27.758 -120.744,-51.621c-0.996,-7.499 -1.715,-11.25 -2.16,-13.105c-1.19,-0.592 -1.912,-1.858 -1.699,-3.242c0.404,-2.622 2.179,-3.551 3.589,-3.551l0.035,0c3.204,0.035 4.266,1.912 6.545,19.062c2.462,18.524 55.884,43.433 114.72,46.1c1.756,0.079 3.115,1.565 3.036,3.321c-0.077,1.709 -1.486,3.039 -3.176,3.039z" fill="#B31B1F" id="svg_52"/>
  <path d="m485.638722,654.475405c-0.232,0 -0.468,-0.025 -0.707,-0.076c-1.711,-0.388 -2.787,-2.094 -2.399,-3.809c0.137,-0.614 14.054,-61.958 27.061,-106.085c0.496,-1.686 2.278,-2.654 3.952,-2.151c1.686,0.496 2.65,2.265 2.151,3.952c-12.95,43.93 -26.819,105.076 -26.956,105.691c-0.337,1.476 -1.648,2.478 -3.102,2.478z" fill="#B31B1F" id="svg_53"/>
  <path d="m209.561722,521.244405c-0.156,0 -0.318,-0.013 -0.477,-0.035c-1.737,-0.261 -2.934,-1.884 -2.673,-3.618c0.328,-2.195 8.184,-54.042 18.963,-78.302c10.481,-23.577 15.845,-47.481 15.9,-47.72c0.375,-1.715 2.071,-2.787 3.795,-2.418c1.715,0.382 2.797,2.084 2.415,3.799c-0.219,0.999 -5.558,24.766 -16.293,48.925c-10.43,23.472 -18.41,76.13 -18.489,76.658c-0.236,1.581 -1.594,2.711 -3.141,2.711z" fill="#B31B1F" id="svg_54"/>
  <path d="m161.058722,340.226405c-8.47,0 -17.961,-0.515 -28.41,-1.845c-1.743,-0.223 -2.978,-1.814 -2.755,-3.557c0.22,-1.744 1.852,-2.956 3.557,-2.756c31.818,4.054 54.421,0.322 66.072,-2.22c-5.803,-1.855 -13.933,-3.663 -22.046,-3.22c-18.257,0.859 -44.971,-15.451 -46.1,-16.151c-1.496,-0.922 -1.957,-2.882 -1.034,-4.378c0.922,-1.495 2.885,-1.963 4.378,-1.034c0.261,0.159 26.192,16.001 42.428,15.206c15.467,-0.815 33.784,6.074 35.448,9.029c0.595,1.053 0.547,2.422 -0.131,3.424c-0.63,0.926 -1.934,1.483 -3.08,1.413c-0.502,0.057 -1.991,0.413 -3.439,0.757c-6.958,1.667 -22.294,5.329 -44.888,5.332z" fill="#B31B1F" id="svg_55"/>
  <path d="m239.269722,271.843405c-1.184,0 -2.319,-0.662 -2.867,-1.794c-0.079,-0.163 -8.024,-16.3 -21.553,-22.696c-15.358,-7.264 -32.727,-32.581 -33.459,-33.653c-0.989,-1.454 -0.614,-3.436 0.837,-4.422c1.457,-0.987 3.433,-0.608 4.419,0.836c0.172,0.249 17.128,24.958 30.927,31.484c15.59,7.378 24.2,24.938 24.56,25.679c0.763,1.585 0.098,3.481 -1.483,4.245c-0.445,0.219 -0.916,0.321 -1.381,0.321z" fill="#B31B1F" id="svg_56"/>
  <path d="m387.058722,456.750405c-0.118,0 -0.239,-0.013 -0.356,-0.041c-0.856,-0.194 -1.394,-1.05 -1.197,-1.903c0.077,-0.337 7.665,-33.51 9.886,-50.36c3.458,-26.272 -8.308,-35.435 -8.425,-35.524c-0.704,-0.529 -0.85,-1.521 -0.328,-2.224c0.522,-0.707 1.508,-0.856 2.214,-0.338c0.551,0.404 13.418,10.207 9.692,38.499c-2.237,17.004 -9.86,50.323 -9.937,50.654c-0.168,0.741 -0.824,1.237 -1.549,1.237z" fill="#08824F" id="svg_57"/>
  <path d="m293.224722,408.906405l-3.16,-0.366c0,0 2.469,-21.48 3.758,-32.04c1.301,-10.652 4.34,-17.926 4.47,-18.231c0.34,-0.815 1.276,-1.184 2.084,-0.85c0.808,0.344 1.187,1.279 0.846,2.088c-0.031,0.07 -3,7.197 -4.241,17.381c-1.288,10.551 -3.757,32.015 -3.757,32.018z" fill="#08824F" id="svg_58"/>
  <path d="m383.569722,761.635405c-18.146,0 -28.123,-0.598 -41.932,-1.426c-17.764,-1.065 -42.088,-2.523 -98.933,-3.407c-1.756,-0.026 -3.159,-1.47 -3.131,-3.23c0.029,-1.756 1.575,-3.22 3.23,-3.134c56.984,0.885 81.392,2.352 99.212,3.421c13.701,0.817 23.596,1.412 41.554,1.412c22.479,0 42.645,-2.462 62.149,-4.842c17.121,-2.094 33.29,-4.066 50.621,-4.451c36.969,-0.815 64.596,-0.004 64.869,0c1.757,0.057 3.137,1.524 3.083,3.277c-0.054,1.756 -1.536,3.057 -3.274,3.086c-0.273,-0.009 -27.744,-0.824 -64.535,0c-17.016,0.376 -33.036,2.332 -49.994,4.404c-19.692,2.405 -40.052,4.89 -62.919,4.89z" fill="#B31B1F" id="svg_59"/>
  <path d="m527.704722,719.182405c-1.581,0 -3.166,-0.71 -4.547,-2.797c-4.298,-6.494 -5.596,-7.029 -13.907,-5.749c-7.518,1.174 -10.487,-4.156 -12.453,-7.678c-0.656,-1.177 -1.279,-2.288 -1.823,-2.717c-1.464,-1.155 -5.12,0.232 -6.666,1.085l-1.543,-2.781c0.674,-0.376 6.669,-3.573 10.181,-0.802c1.041,0.824 1.776,2.141 2.628,3.662c1.9,3.395 3.866,6.892 9.189,6.087c9.514,-1.47 12.056,-0.398 17.048,7.137c1.324,2.004 2.469,1.73 5.998,-0.328c2.679,-1.572 6.742,-3.942 9.771,0.289l-2.584,1.852c-1.18,-1.638 -2.249,-1.343 -5.584,0.605c-1.594,0.932 -3.649,2.135 -5.708,2.135z" fill="white" id="svg_60"/>
  <path d="m490.685722,569.334405c0,0 -75.999,-27.481 -108.971,-13.424c-32.973,14.054 -60.145,50.287 -55.111,52.683c5.033,2.399 31.97,-18.492 31.97,-18.492c0,0 -27.468,27.757 -22.374,30.535c5.094,2.778 31.563,-12.043 31.563,-12.043c0,0 -18.477,19.752 -10.541,21.264c7.935,1.511 24.948,-14.763 42.689,-15.374c17.745,-0.614 40.106,13.407 62.289,17.356c22.18,3.945 28.486,-62.505 28.486,-62.505z" fill="#FFCEB0" id="svg_61"/>
  <path d="m605.379722,555.089405c-0.197,0 -0.395,-0.019 -0.595,-0.057c-0.223,-0.038 -22.603,-4.27 -49.358,-9.711c-1.722,-0.35 -2.835,-2.03 -2.485,-3.751c0.346,-1.721 2.023,-2.835 3.751,-2.482c26.711,5.428 49.053,9.65 49.275,9.695c1.728,0.324 2.861,1.988 2.533,3.716c-0.286,1.527 -1.623,2.59 -3.121,2.59z" fill="#B31B1F" id="svg_62"/>
  <path clip-rule="evenodd" d="m392.971722,55.019405c-0.832,0 -1.734,0.096 -2.713,0.289c-2.385,0.479 -3.931,1.638 -4.859,3.65c-4.136,8.953 4.586,30.278 10.818,42.876c3.851,-13.976 8.466,-37.337 1.944,-44.699c-1.255,-1.415 -2.964,-2.116 -5.19,-2.116zm3.429,57.279c0.1,0.019 0.201,0.033 0.303,0.042c0.332,0.127 0.686,0.193 1.043,0.193c0.332,0 0.664,-0.055 0.987,-0.172c4.25,-1.55 41.671,-15.584 46.333,-31.756c1.121,-3.889 0.331,-7.723 -2.281,-11.083c-4.443,-5.719 -9.243,-6.4 -12.489,-5.967c-9.211,1.228 -18.278,13.129 -24.927,24.434c2.352,-12.877 3.257,-27.748 -2.886,-34.684c-2.167,-2.448 -6.249,-5.073 -13.355,-3.657c-4.17,0.831 -7.273,3.216 -8.97,6.891c-6.277,13.597 8.164,42.879 12.978,51.954c-6.07,1.171 -12.173,1.436 -18.012,1.039c-12.58,-0.855 -23.729,-4.767 -30.386,-9.046l-2.38,3.701c7.367,4.735 19.255,8.837 32.468,9.735c6.929,0.471 14.278,0.064 21.574,-1.624zm35.488,-43.078c-0.273,0 -0.55,0.017 -0.827,0.059c-9.756,1.297 -21.544,21.988 -27.776,35.078c12.956,-5.455 33.504,-15.874 36.233,-25.348c0.613,-2.134 0.202,-4.019 -1.289,-5.942c-2.007,-2.583 -4.086,-3.847 -6.341,-3.847z" fill="#FFD310" fill-rule="evenodd" id="svg_63"/>
 </g>
</svg>