<?xml version="1.0"?>
<svg width="270" height="250" xmlns="http://www.w3.org/2000/svg" xmlns:svg="http://www.w3.org/2000/svg">
 <defs>
  <linearGradient id="paint0_linear" x1="-0.011236" x2="0.12312" y1="0.250792" y2="1.0278">
   <stop stop-color="#FFD0D0"/>
   <stop offset="1" stop-color="#FFF8F8"/>
  </linearGradient>
  <linearGradient id="paint1_linear" x1="1.129437" x2="0.38313" y1="0.299389" y2="0.045585">
   <stop stop-color="#FFF8F8"/>
   <stop offset="1" stop-color="#FFD0D0"/>
  </linearGradient>
  <linearGradient id="paint2_linear" x1="1.008109" x2="-0.173334" y1="0.873062" y2="0.309072">
   <stop stop-color="#FFD0D0"/>
   <stop offset="1" stop-color="#FFF7F7"/>
  </linearGradient>
  <linearGradient id="paint3_linear" x1="0.909305" x2="0.000872" y1="0.890795" y2="0.247035">
   <stop stop-color="#FFCFCF"/>
   <stop offset="1" stop-color="#FFF8F8"/>
  </linearGradient>
 </defs>
 <g class="layer">
  <title>Layer 1</title>
  <path d="m96.790917,240.346318c-15.1471,5.367 -30.4408,7.846 -46.7539,4.747c-18.1827,-3.456 -33.9537,-19.016 -42.8649,-34.534c-3.311,-5.764 -5.9469,-12.204 -5.6025,-18.841c0.8015,-15.332 15.2858,-17.045 27.5807,-14.565c6.9307,1.394 13.2945,4.569 19.5861,7.713c10.4455,5.223 22.6983,7.792 32.063,15.032c3.1424,2.436 5.5023,5.364 9.1535,7.136c5.68,2.76 12.164,4.063 17.998,6.574c4.981,2.155 10.549,5.7 10.556,11.125c0.001,5.563 -5.804,9.109 -10.904,11.324c-3.61,1.578 -7.204,3.017 -10.812,4.289z" fill="url(#paint0_linear)" id="svg_1"/>
  <path d="m41.039017,42.583918c24.813,-36.5671 76.1219,-51.2494 117.7109,-37.501c20.055,6.633 36.862,20.4448 52.364,34.7827c13.664,12.637 26.92,26.2667 36.252,42.5127c6.371,11.089 10.932,24.381 14.152,36.791c4.815,18.58 0.442,42.521 -23.577,40.767c-5.635,-0.411 -10.51,-2.437 -15.781,-4.21c-4.263,-1.437 -8.441,-0.575 -12.867,-1.277c-11.142,-1.764 -21.875,-5.866 -32.024,-10.671c-20.684,-9.8 -39.583,-23.115 -60.855,-31.703c-17.432,-7.029 -36.0483,-10.658 -54.8442,-10.691c-7.9296,-0.013 -16.2673,0.542 -23.3605,-3.004c-17.4829,-8.747 -9.621,-32.334 -3.0917,-45.6017c1.7298,-3.5342 3.7086,-6.9411 5.9215,-10.1947z" fill="url(#paint1_linear)" id="svg_2"/>
  <path d="m235.585917,48.103318c4.085,3.6999 20.135,13.8 20.444,1.9474c0.073,-2.9528 -1.266,-5.8199 -3.089,-7.9824c-2.085,-2.4821 -4.45,-3.784 -6.078,-6.6758c-1.993,-3.4916 -4.261,-6.7731 -6.775,-9.8022c-5.14,-6.3046 -11.141,-12.1298 -18.423,-14.7253c-5.107,-1.8182 -13.754,-1.361 -16.18,5.1845c-3.534,9.5283 11.578,11.2742 16.187,14.7467c4.374,3.2868 6.851,8.9344 10.316,13.4228c1.095,1.4153 2.299,2.7156 3.598,3.8843z" fill="url(#paint2_linear)" id="svg_3"/>
  <path d="m160.047917,36.513518c8.653,5.0943 15.143,12.7196 23.032,18.8608c13.134,10.223 31.137,12.314 46.199,19.424c15.358,7.253 26.955,18.526 32.198,34.773c6.774,20.972 7.418,45.912 1.663,67.472c-6.338,23.732 -21.222,39.496 -42.983,50.009c-21.749,10.507 -45.842,15.41 -69.872,16.422c-2.319,0.099 -4.634,0.153 -6.958,0.168c-52.203,0.303 -121.6878,-18.072 -139.4607,-74.15c-0.1629,-0.513 -0.319,-1.025 -0.4756,-1.545c-1.8313,-6.248 -2.9081,-12.692 -3.2073,-19.196c-1.1179,-23.057 2.9174,-48.506 11.001,-70.12c5.4369,-14.552 17.1443,-26.8561 29.4809,-35.6231c17.3327,-12.3165 38.4812,-15.4597 59.5297,-16.9375c15.587,-1.0936 33.117,-1.4932 47.857,4.4688c4.142,1.6888 8.152,3.6857 11.996,5.974z" fill="url(#paint3_linear)" id="svg_4"/>
  <path d="m62.379117,71.848318c0,0 53.0758,70.867 66.3528,76.727c13.281,5.863 29.929,4.543 31.385,11.341c1.456,6.802 -27.873,-4.703 -23.194,5.789c4.678,10.496 22.912,22.476 22.998,33.042c0.089,10.57 -29.015,-22.687 -29.015,-22.687c0,0 27.422,30.427 18.342,31.146c-9.084,0.72 -32.571,-29.028 -32.571,-29.028c0,0 26.273,39.024 17.563,35.459c-8.705,-3.564 -89.4464,-96.932 -101.8975,-106.812c-12.451,-9.876 30.0367,-34.977 30.0367,-34.977z" fill="#E27B5A" id="svg_5"/>
  <path d="m216.775917,89.050318c0,0 -60.536,64.592 -74.38,68.957c-13.844,4.362 -30.244,1.22 -32.441,7.815c-2.193,6.597 28.221,-1.606 22.416,8.311c-5.801,9.913 -25.239,19.812 -26.488,30.308c-1.244,10.492 31.334,-19.356 31.334,-19.356c0,0 -30.6,27.222 -21.654,28.936c8.951,1.717 35.564,-25.264 35.564,-25.264c0,0 -30.403,35.897 -21.357,33.312c9.047,-2.585 99.557,-86.496 113.016,-94.945c13.462,-8.448 -26.01,-38.074 -26.01,-38.074z" fill="#FFCEB0" id="svg_6"/>
  <path d="m165.238917,133.900318c0,0 18.619,35.257 35.735,39.008c17.114,3.751 54.086,-29.716 62.153,-46.293c8.07,-16.574 -31.261,-66.7303 -39.678,-73.9444c-12.159,-1.4844 -66.842,49.8024 -58.21,81.2294z" fill="#FB4C47" id="svg_7"/>
  <path d="m49.709917,37.641718c0,0 61.238,60.3526 58.336,76.0236c-2.898,15.674 -26.2814,34.449 -45.14,40.597c-18.8585,6.146 -60.0872,-18.611 -60.0872,-36.664c-3.0064,-30.66 12.6249,-62.5225 46.8912,-79.9566z" fill="#128E5A" id="svg_8"/>
 </g>
</svg>